<?xml version="1.0" encoding="iso-8859-1"?>
<!-- Generator: Adobe Illustrator 19.0.0, SVG Export Plug-In . SVG Version: 6.00 Build 0)  -->
<svg xmlns="http://www.w3.org/2000/svg" xmlns:xlink="http://www.w3.org/1999/xlink" version="1.1" id="Capa_1" x="0px" y="0px" viewBox="0 0 512 512" style="enable-background:new 0 0 512 512;" xml:space="preserve">
<path style="fill:#CC4444;" d="M473.863,72.581H38.137C21.223,72.581,7.5,86.291,7.5,103.22v356.727v0.002  c0,16.921,13.718,30.637,30.637,30.637h435.725c16.916,0,30.637-13.71,30.637-30.639c0-2.229,0-352.913,0-356.729  C504.5,86.297,490.784,72.581,473.863,72.581z"/>
<path style="fill:#B53C3C;" d="M27.502,459.947c0-2.229,0-352.913,0-356.729c0-16.921,13.718-30.637,30.637-30.637H38.137  C21.223,72.581,7.5,86.291,7.5,103.22v356.727v0.002c0,16.921,13.718,30.637,30.637,30.637h20.001  C41.246,490.586,27.502,476.898,27.502,459.947z"/>
<g>
	<path style="fill:#E3E5E5;" d="M120.979,121.42c-11.047,0-20.001-8.955-20.001-20.001V41.415c0-11.047,8.955-20.001,20.001-20.001   c11.047,0,20.001,8.955,20.001,20.001v60.004C140.981,112.466,132.026,121.42,120.979,121.42z"/>
	<path style="fill:#E3E5E5;" d="M213.652,121.42c-11.047,0-20.001-8.955-20.001-20.001V41.415c0-11.047,8.955-20.001,20.001-20.001   s20.001,8.955,20.001,20.001v60.004C233.653,112.466,224.699,121.42,213.652,121.42z"/>
	<path style="fill:#E3E5E5;" d="M306.324,121.42c-11.047,0-20.001-8.955-20.001-20.001V41.415c0-11.047,8.955-20.001,20.001-20.001   s20.001,8.955,20.001,20.001v60.004C326.325,112.466,317.37,121.42,306.324,121.42z"/>
	<path style="fill:#E3E5E5;" d="M398.996,121.42c-11.047,0-20.001-8.955-20.001-20.001V41.415c0-11.047,8.955-20.001,20.001-20.001   s20.001,8.955,20.001,20.001v60.004C418.997,112.466,410.043,121.42,398.996,121.42z"/>
</g>
<g>
	<path style="fill:#D6D6D6;" d="M120.979,101.419V41.415c0-7.398,4.028-13.844,10.001-17.304c-2.944-1.705-6.352-2.697-10.001-2.697   c-11.047,0-20.001,8.955-20.001,20.001v60.004c0,15.369,16.678,25.02,30.002,17.304   C125.008,115.263,120.979,108.819,120.979,101.419z"/>
	<path style="fill:#D6D6D6;" d="M213.652,101.419V41.415c0-7.398,4.028-13.844,10.001-17.304c-2.944-1.705-6.353-2.697-10.001-2.697   c-11.047,0-20.001,8.955-20.001,20.001v60.004c0,11.047,8.955,20.001,20.001,20.001c3.647,0,7.056-0.992,10.001-2.697   C217.68,115.263,213.652,108.819,213.652,101.419z"/>
	<path style="fill:#D6D6D6;" d="M306.324,101.419V41.415c0-7.398,4.028-13.844,10.001-17.304c-2.944-1.705-6.353-2.697-10.001-2.697   c-11.047,0-20.001,8.955-20.001,20.001v60.004c0,11.047,8.955,20.001,20.001,20.001c3.647,0,7.056-0.992,10.001-2.697   C310.352,115.263,306.324,108.819,306.324,101.419z"/>
	<path style="fill:#D6D6D6;" d="M398.996,101.419V41.415c0-7.398,4.028-13.844,10.001-17.304c-2.944-1.705-6.353-2.697-10.001-2.697   c-11.047,0-20.001,8.955-20.001,20.001v60.004c0,11.047,8.955,20.001,20.001,20.001c3.647,0,7.056-0.992,10.001-2.697   C403.024,115.263,398.996,108.819,398.996,101.419z"/>
</g>
<path style="fill:#F5F5F5;" d="M45.975,192.022V445.44c0,6.627,5.372,12.001,12.001,12.001H455c6.628,0,12.001-5.373,12.001-12.001  V192.022H45.975z"/>
<path style="fill:#E3E5E5;" d="M65.976,445.44V192.022H45.975V445.44c0,6.627,5.372,12.001,12.001,12.001h20.001  C71.348,457.441,65.976,452.067,65.976,445.44z"/>
<path style="fill:#626C7F;" d="M333.297,246.367c-6.711-6.715-17.598-6.715-24.311,0l-34.676,34.674l-56.129-26.845  c-7.781-3.724-17.122-1.1-21.827,6.137c-4.454,6.85-3.445,15.827,2.246,21.521c0.318,0.318,0.649,0.626,0.997,0.92l39.352,33.629  l-25.416,25.415l-19.491-4.294c-9.272-2.043-18.442,3.816-20.486,13.09c-1.313,5.949,0.632,11.859,4.641,15.868  c2.242,2.24,5.125,3.887,8.447,4.619l17.962,3.957l3.959,17.963c0.732,3.321,2.379,6.207,4.62,8.447  c4.01,4.011,9.919,5.952,15.866,4.642c9.274-2.042,15.134-11.217,13.09-20.487l-4.293-19.491l25.415-25.415l33.629,39.351  c0.296,0.347,0.604,0.68,0.921,0.998c5.692,5.693,14.668,6.701,21.521,2.246c7.233-4.704,9.86-14.044,6.134-21.829l-26.844-56.129  l34.675-34.674C340.013,263.964,340.013,253.079,333.297,246.367z"/>
<path style="fill:#F95C4B;" d="M455,155.422H57.975c-6.628,0-12.001,5.372-12.001,12.001v26.599H467v-26.599  C467,160.795,461.628,155.422,455,155.422z"/>
<path style="fill:#F44B34;" d="M77.977,155.422H57.976c-6.628,0-12.001,5.372-12.001,12.001v26.599h20.001v-26.599  C65.976,160.795,71.348,155.422,77.977,155.422z"/>
<path style="fill:#555E6D;" d="M318.625,261.026c0,0,10.07-10.328,17.964-10.019c-0.815-1.674-1.901-3.25-3.292-4.641  c-6.711-6.715-17.598-6.715-24.311,0L274.31,281.04l-56.129-26.845c-7.781-3.724-17.122-1.1-21.827,6.137  c-4.454,6.85-3.445,15.827,2.246,21.521c0.318,0.318,0.649,0.626,0.997,0.92l39.352,33.629l-25.416,25.415l-19.491-4.294  c-9.272-2.043-18.442,3.816-20.486,13.09c-1.313,5.949,0.632,11.859,4.641,15.868c2.242,2.24,5.125,3.887,8.447,4.619l17.962,3.957  L318.625,261.026z"/>
<path d="M195.656,330.199c-13.308-2.931-26.495,5.504-29.426,18.798c-2.971,13.471,5.612,26.521,18.799,29.429l13.282,2.927  c2.995,13.59,3.332,19.189,9.569,25.419c11.196,11.201,29.803,9.115,38.279-4.156c6.692-10.476,3.265-18.784-0.104-34.085  l16.774-16.773c30.521,35.715,28.68,33.612,29.678,34.612c8.191,8.192,21.19,9.554,30.914,3.23  c10.355-6.733,14.143-20.213,8.812-31.353l-24.553-51.342l30.922-30.922c4.665-4.664,7.233-10.865,7.233-17.46  c0-6.596-2.569-12.797-7.233-17.46c-9.648-9.652-25.269-9.652-34.918,0l-30.924,30.922l-51.341-24.554  c-11.141-5.332-24.619-1.542-31.353,8.814c-6.319,9.719-4.961,22.719,3.229,30.914c1,0.998-1.193-0.922,34.613,29.677  l-16.774,16.774L195.656,330.199z M218.835,347.122l25.416-25.415c3.09-3.088,2.895-8.163-0.431-11.007  c-0.425-0.363-39.522-33.755-39.917-34.149c-7.617-7.619,1.242-20.279,11.041-15.589l56.129,26.845  c2.869,1.372,6.291,0.786,8.54-1.462l34.677-34.675c3.784-3.786,9.916-3.79,13.703-0.001c0.001,0.001,0.001,0.002,0.002,0.002  c3.787,3.785,3.79,9.917-0.001,13.704l-34.675,34.674c-2.248,2.249-2.834,5.671-1.462,8.54l26.844,56.131  c2.093,4.372,0.606,9.662-3.456,12.304c-3.976,2.584-9.432,1.938-12.652-1.828l-33.629-39.351  c-2.864-3.352-7.943-3.491-11.006-0.432l-25.415,25.415c-1.81,1.811-2.571,4.418-2.021,6.917c4.563,20.721,5.76,22.469,2.996,26.795  c-3.318,5.195-10.617,6.039-15.033,1.623c-2.56-2.558-2.264-3.244-6.556-22.718c-0.629-2.854-2.857-5.081-5.711-5.71l-17.96-3.957  c-5.21-1.149-8.539-6.294-7.378-11.549c1.153-5.232,6.347-8.528,11.549-7.379l19.491,4.294  C214.414,349.694,217.027,348.93,218.835,347.122z"/>
<path d="M473.863,65.082h-47.365V41.415c0-15.164-12.338-27.502-27.502-27.502s-27.502,12.338-27.502,27.502v23.666h-37.669V41.415  c0-15.164-12.338-27.502-27.502-27.502s-27.502,12.338-27.502,27.502v23.666h-37.668V41.415c0-15.164-12.338-27.502-27.502-27.502  S186.15,26.252,186.15,41.415v23.666h-37.669V41.415c0-15.164-12.338-27.502-27.502-27.502S93.478,26.252,93.478,41.415v23.666  h-55.34C17.108,65.082,0,82.191,0,103.22v356.729c0,21.028,17.108,38.137,38.137,38.137h363.359c4.143,0,7.5-3.357,7.5-7.5  s-3.357-7.5-7.5-7.5H38.137c-12.758,0-23.136-10.379-23.136-23.136V103.22c0-12.758,10.379-23.137,23.136-23.137h55.34v21.336  c0,15.164,12.338,27.502,27.502,27.502s27.502-12.338,27.502-27.502V80.083h37.669v21.336c0,15.164,12.338,27.502,27.502,27.502  s27.502-12.338,27.502-27.502V80.083h37.668v21.336c0,15.164,12.338,27.502,27.502,27.502s27.502-12.338,27.502-27.502V80.083  h37.669v21.336c0,15.164,12.338,27.502,27.502,27.502s27.502-12.338,27.502-27.502V80.083h47.365  c12.758,0,23.136,10.38,23.136,23.137v356.729c0,12.758-10.379,23.136-23.136,23.136h-37.364c-4.143,0-7.5,3.357-7.5,7.5  s3.357,7.5,7.5,7.5h37.364c21.028,0,38.137-17.108,38.137-38.137V103.22C512,82.191,494.891,65.082,473.863,65.082z M133.48,101.419  c0,6.893-5.607,12.501-12.501,12.501c-6.893,0-12.501-5.607-12.501-12.501c0-7.094,0-52.499,0-60.004  c0-6.893,5.607-12.501,12.501-12.501c6.893,0,12.501,5.607,12.501,12.501C133.48,48.973,133.48,94.645,133.48,101.419z   M226.153,101.419c0,6.893-5.607,12.501-12.501,12.501s-12.501-5.607-12.501-12.501c0-7.094,0-52.499,0-60.004  c0-6.893,5.607-12.501,12.501-12.501s12.501,5.607,12.501,12.501C226.153,48.973,226.153,94.645,226.153,101.419z M318.824,101.419  c0,6.893-5.607,12.501-12.501,12.501s-12.501-5.607-12.501-12.501c0-7.094,0-52.499,0-60.004c0-6.893,5.607-12.501,12.501-12.501  s12.501,5.607,12.501,12.501C318.824,48.973,318.824,94.645,318.824,101.419z M411.497,101.419c0,6.893-5.607,12.501-12.501,12.501  c-6.893,0-12.501-5.607-12.501-12.501c0-7.094,0-52.499,0-60.004c0-6.893,5.607-12.501,12.501-12.501  c6.893,0,12.501,5.607,12.501,12.501C411.497,48.973,411.497,94.645,411.497,101.419z"/>
<path d="M45.975,259.801c-4.143,0-7.5,3.357-7.5,7.5V445.44c0,10.753,8.749,19.501,19.501,19.501H455  c10.753,0,19.501-8.749,19.501-19.501c0-13.32,0-266.309,0-277.017c0-10.753-8.749-19.501-19.501-19.501H57.975  c-10.753,0-19.501,8.749-19.501,19.501c0,22.549,0,41.39,0,63.876c0,4.143,3.357,7.5,7.5,7.5s7.5-3.357,7.5-7.5v-29.777H459.5  V445.44c0,2.481-2.019,4.5-4.5,4.5H57.975c-2.481,0-4.5-2.019-4.5-4.5V267.301C53.475,263.159,50.117,259.801,45.975,259.801z   M53.475,187.521v-19.098c0-2.481,2.019-4.5,4.5-4.5H455c2.481,0,4.5,2.019,4.5,4.5v19.098H53.475z"/>
<g>
</g>
<g>
</g>
<g>
</g>
<g>
</g>
<g>
</g>
<g>
</g>
<g>
</g>
<g>
</g>
<g>
</g>
<g>
</g>
<g>
</g>
<g>
</g>
<g>
</g>
<g>
</g>
<g>
</g>
</svg>
